{"scene":0,"asset":{"generator":"ImageToStl.com","version":"2.0"},"scenes":[{"name":"Scene","nodes":[0]}],"nodes":[{"name":"Node0","children":[1]},{"name":"Node1","mesh":0}],"materials":[{"name":"saturn","pbrMetallicRoughness":{"baseColorFactor":[0.8,0.8,0.8,1.0],"metallicFactor":0.5,"roughnessFactor":0.64},"emissiveFactor":[0.0,0.0,0.0],"doubleSided":true},{"name":"atmosphere","pbrMetallicRoughness":{"baseColorFactor":[0.8,0.8,0.8,1.0],"metallicFactor":0.5,"roughnessFactor":0.64},"emissiveFactor":[0.0,0.0,0.0],"doubleSided":true}],"meshes":[{"name":"Mesh0","primitives":[{"indices":3,"material":0,"attributes":{"POSITION":0,"NORMAL":1,"TEXCOORD_0":2}},{"indices":4,"material":0,"attributes":{"POSITION":0,"NORMAL":1,"TEXCOORD_0":2}},{"indices":5,"material":1,"attributes":{"POSITION":0,"NORMAL":1,"TEXCOORD_0":2}}]}],"accessors":[{"bufferView":0,"componentType":5126,"count":3364,"type":"VEC3","min":[-3.9872856,-3.984981,-1.2895067],"max":[3.9872856,3.984981,1.2895067]},{"bufferView":1,"componentType":5126,"count":3364,"type":"VEC3"},{"bufferView":2,"componentType":5126,"count":3364,"type":"VEC2"},{"bufferView":3,"componentType":5123,"count":576,"type":"SCALAR"},{"bufferView":4,"componentType":5123,"count":27648,"type":"SCALAR"},{"bufferView":5,"componentType":5123,"count":27648,"type":"SCALAR"}],"bufferViews":[{"target":34962,"buffer":0,"byteLength":40368,"byteOffset":0},{"target":34962,"buffer":0,"byteLength":40368,"byteOffset":40368},{"target":34962,"buffer":0,"byteLength":26912,"byteOffset":80736},{"target":34963,"buffer":0,"byteLength":1152,"byteOffset":107648},{"target":34963,"buffer":0,"byteLength":55296,"byteOffset":108800},{"target":34963,"buffer":0,"byteLength":55296,"byteOffset":164096}],"buffers":[{"byteLength":219392,"uri":"data:application/octet-stream;base64,"}]}